<?xml version="1.0" encoding="UTF-8" standalone="no"?>
<svg width="90px" height="30px" viewBox="0 0 90 30" version="1.1" xmlns="http://www.w3.org/2000/svg" xmlns:xlink="http://www.w3.org/1999/xlink">
    <!-- Generator: Sketch Beta 3.7.2 (28276) - http://www.bohemiancoding.com/sketch -->
    <title>logo</title>
    <desc>Created with Sketch Beta.</desc>
    <defs></defs>
    <g id="Assets" stroke="none" stroke-width="1" fill="none" fill-rule="evenodd">
        <g id="Web-assets" transform="translate(-97.000000, -71.000000)" fill="#FF2851">
            <g id="pttrns" transform="translate(97.000000, 71.000000)">
                <path d="M0,6.53571429 L4.204947,6.53571429 L4.204947,8.17857143 C4.3698477,7.98809429 4.58774894,7.77381071 4.85865724,7.53571429 C5.12956555,7.29761786 5.45936201,7.059525 5.84805654,6.82142857 C6.23675106,6.58333214 6.69611042,6.38690554 7.22614841,6.23214286 C7.7561864,6.07738018 8.36277633,6 9.0459364,6 C10.3415848,6 11.4899832,6.27380679 12.4911661,6.82142857 C13.4923489,7.36905036 14.3286186,8.08928125 15,8.98214286 C15.6713814,9.87500446 16.1837438,10.8988038 16.5371025,12.0535714 C16.8904611,13.2083391 17.0671378,14.4047557 17.0671378,15.6428571 C17.0671378,16.9761971 16.8727935,18.2083277 16.4840989,19.3392857 C16.0954044,20.4702437 15.5477067,21.4523768 14.8409894,22.2857143 C14.1342721,23.1190518 13.286224,23.7678548 12.2968198,24.2321429 C11.3074155,24.6964309 10.2237986,24.9285714 9.0459364,24.9285714 C8.43344806,24.9285714 7.87986113,24.8630959 7.38515901,24.7321429 C6.89045689,24.6011898 6.44287597,24.4345248 6.04240283,24.2321429 C5.64192968,24.0297609 5.28857633,23.8154773 4.98233216,23.5892857 C4.67608799,23.3630941 4.41696219,23.1428582 4.204947,22.9285714 L4.204947,30 L0,30 L0,6.53571429 Z M4.16961131,15.3571429 C4.14605406,16.2857189 4.24617085,17.0952346 4.46996466,17.7857143 C4.69375848,18.4761939 5.00588728,19.0535691 5.40636042,19.5178571 C5.80683357,19.9821452 6.27208216,20.3273798 6.80212014,20.5535714 C7.33215813,20.779763 7.89163428,20.8928571 8.48056537,20.8928571 C8.99882473,20.8928571 9.5111871,20.79762 10.0176678,20.6071429 C10.5241486,20.4166657 10.983508,20.107145 11.3957597,19.6785714 C11.8080115,19.2499979 12.137808,18.6845273 12.385159,17.9821429 C12.6325101,17.2797584 12.7561837,16.4285764 12.7561837,15.4285714 C12.7561837,14.3095182 12.5912855,13.4047654 12.2614841,12.7142857 C11.9316827,12.0238061 11.5312155,11.4821448 11.0600707,11.0892857 C10.5889258,10.6964266 10.1118988,10.4345245 9.62897527,10.3035714 C9.14605177,10.1726184 8.73969541,10.1071429 8.40989399,10.1071429 C7.91519187,10.1071429 7.42049717,10.20238 6.92579505,10.3928571 C6.43109293,10.5833343 5.98351201,10.8869027 5.58303887,11.3035714 C5.18256572,11.7202402 4.85276926,12.2619014 4.59363958,12.9285714 C4.33450989,13.5952414 4.19316855,14.4047571 4.16961131,15.3571429 Z" id="Combined-Shape"></path>
                <path d="M24.819788,9.39285714 L24.819788,17.4642857 C24.819788,18.0119075 24.8315664,18.4880932 24.8551237,18.8928571 C24.8786809,19.2976211 24.9493516,19.6309511 25.0671378,19.8928571 C25.184924,20.1547632 25.3851576,20.3452375 25.6678445,20.4642857 C25.9505314,20.5833339 26.3392201,20.6428571 26.8339223,20.6428571 C27.1637237,20.6428571 27.464074,20.6309525 27.7349823,20.6071429 C28.0058906,20.5833332 28.2944625,20.52381 28.6007067,20.4285714 L28.6007067,24.0357143 C27.9646611,24.1547625 27.4110742,24.2321427 26.9399293,24.2678571 C26.4687845,24.3035716 25.9976466,24.3214286 25.5265018,24.3214286 C25.3144866,24.3214286 24.9905793,24.3095239 24.5547703,24.2857143 C24.1189613,24.2619046 23.6596019,24.1845245 23.1766784,24.0535714 C22.6937549,23.9226184 22.2402848,23.7083348 21.8162544,23.4107143 C21.392224,23.1130938 21.074206,22.6904789 20.8621908,22.1428571 C20.7208473,21.7857125 20.6383982,21.3154791 20.614841,20.7321429 C20.5912837,20.1488066 20.5795053,19.4047664 20.5795053,18.5 L20.5795053,9.39285714 L18,9.39285714 L18,6.32142857 L20.5795053,6.32142857 L20.5795053,0 L24.819788,0 L24.819788,6.32142857 L28.6007067,6.32142857 L28.6007067,9.39285714 L24.819788,9.39285714 Z" id="Path"></path>
                <path d="M35.819788,9.39285714 L35.819788,17.4642857 C35.819788,18.0119075 35.8315664,18.4880932 35.8551237,18.8928571 C35.8786809,19.2976211 35.9493516,19.6309511 36.0671378,19.8928571 C36.184924,20.1547632 36.3851576,20.3452375 36.6678445,20.4642857 C36.9505314,20.5833339 37.3392201,20.6428571 37.8339223,20.6428571 C38.1637237,20.6428571 38.464074,20.6309525 38.7349823,20.6071429 C39.0058906,20.5833332 39.2944625,20.52381 39.6007067,20.4285714 L39.6007067,24.0357143 C38.9646611,24.1547625 38.4110742,24.2321427 37.9399293,24.2678571 C37.4687845,24.3035716 36.9976466,24.3214286 36.5265018,24.3214286 C36.3144866,24.3214286 35.9905793,24.3095239 35.5547703,24.2857143 C35.1189613,24.2619046 34.6596019,24.1845245 34.1766784,24.0535714 C33.6937549,23.9226184 33.2402848,23.7083348 32.8162544,23.4107143 C32.392224,23.1130938 32.074206,22.6904789 31.8621908,22.1428571 C31.7208473,21.7857125 31.6383982,21.3154791 31.614841,20.7321429 C31.5912837,20.1488066 31.5795053,19.4047664 31.5795053,18.5 L31.5795053,9.39285714 L29,9.39285714 L29,6.32142857 L31.5795053,6.32142857 L31.5795053,0 L35.819788,0 L35.819788,6.32142857 L39.6007067,6.32142857 L39.6007067,9.39285714 L35.819788,9.39285714 Z" id="Path"></path>
                <path d="M47.0989399,6.39642863 L47.0989399,8.93214292 C47.2402834,8.69404649 47.4287385,8.40238274 47.664311,8.05714292 C47.8998834,7.71190309 48.2296799,7.38452542 48.6537102,7.07500006 C49.0777406,6.7654747 49.6195491,6.50357256 50.2791519,6.28928577 C50.9387548,6.07499899 51.7632459,5.97976184 52.7526502,6.00357149 L52.7526502,10.3964286 C52.2815053,10.4202383 51.692583,10.4797615 50.9858657,10.5750001 C50.2791484,10.6702386 49.5959986,10.9678547 48.9363958,11.4678572 C48.4888081,11.8250018 48.141344,12.2059504 47.8939929,12.6107143 C47.6466419,13.0154783 47.464076,13.4678547 47.3462898,13.9678572 C47.2285035,14.4678597 47.1578329,15.0214256 47.1342756,15.6285715 C47.1107184,16.2357174 47.0989399,16.9083297 47.0989399,17.6464286 L47.0989399,24.2535715 L43,24.2535715 L43,6.39642863 L47.0989399,6.39642863 Z" id="Path"></path>
                <path d="M55,6.53571429 L59.2756184,6.53571429 L59.2756184,8.64285714 C59.3934046,8.47618964 59.5583028,8.26785839 59.770318,8.01785714 C59.9823332,7.76785589 60.2767943,7.51190607 60.6537102,7.25 C61.1955269,6.84523607 61.8374521,6.53571536 62.5795053,6.32142857 C63.3215585,6.10714179 64.0341544,6 64.7173145,6 C65.730276,6 66.6431055,6.20237893 67.4558304,6.60714286 C68.2685553,7.01190679 68.8987021,7.52380643 69.3462898,8.14285714 C69.8881064,8.90476571 70.2061244,9.7619 70.3003534,10.7142857 C70.3945823,11.6666714 70.4416961,12.7261846 70.4416961,13.8928571 L70.4416961,24.3928571 L66.2367491,24.3928571 L66.2367491,15.2857143 C66.2367491,14.6190443 66.2308599,14.0654784 66.2190813,13.625 C66.2073027,13.1845216 66.1660781,12.8333346 66.0954064,12.5714286 C65.9069484,11.7857104 65.5477058,11.1904782 65.0176678,10.7857143 C64.4876299,10.3809504 63.8810399,10.1785714 63.1978799,10.1785714 C62.5147198,10.1785714 61.8786837,10.3630934 61.2897527,10.7321429 C60.7008216,11.1011923 60.2532406,11.5833304 59.9469965,12.1785714 C59.6171951,12.8452414 59.4228507,13.5892816 59.3639576,14.4107143 C59.3050645,15.232147 59.2756184,15.9761871 59.2756184,16.6428571 L59.2756184,24.3928571 L55,24.3928571 L55,6.53571429 Z" id="Path"></path>
                <path d="M76.1448763,19.1071429 C76.6866929,19.7738129 77.3639535,20.3214264 78.1766784,20.75 C78.9894034,21.1785736 80.0082389,21.3928571 81.2332155,21.3928571 C81.8457039,21.3928571 82.3698447,21.3273816 82.8056537,21.1964286 C83.2414627,21.0654755 83.6007053,20.8928582 83.8833922,20.6785714 C84.1660792,20.4642846 84.3780912,20.2321441 84.5194346,19.9821429 C84.6607781,19.7321416 84.7314488,19.5000011 84.7314488,19.2857143 C84.7314488,18.9999986 84.6607781,18.7619057 84.5194346,18.5714286 C84.3780912,18.3809514 84.2131929,18.2321434 84.024735,18.125 C83.836277,18.0178566 83.6360435,17.9345241 83.4240283,17.875 C83.2120131,17.8154759 83.0353364,17.7738096 82.8939929,17.75 C82.7526495,17.7023807 82.4876345,17.6428575 82.0989399,17.5714286 C81.7102454,17.4999996 81.2921106,17.4226195 80.844523,17.3392857 C80.3969353,17.255952 79.9788005,17.1726195 79.590106,17.0892857 C79.2014115,17.005952 78.924618,16.9404764 78.7597173,16.8928571 C77.6996413,16.6309511 76.8457041,16.2976211 76.1978799,15.8928571 C75.5500557,15.4880932 75.0494717,15.0535737 74.6961131,14.5892857 C74.3427544,14.1249977 74.1012963,13.648812 73.9717314,13.1607143 C73.8421666,12.6726166 73.7773852,12.2261925 73.7773852,11.8214286 C73.7773852,11.05952 73.9422834,10.3273845 74.2720848,9.625 C74.6018862,8.92261554 75.0906917,8.30357411 75.7385159,7.76785714 C76.3863401,7.23214018 77.1813852,6.80357304 78.1236749,6.48214286 C79.0659647,6.16071268 80.1378032,6 81.3392226,6 C82.6819855,6 83.8362731,6.17856964 84.8021201,6.53571429 C85.7679671,6.89285893 86.557123,7.28571214 87.1696113,7.71428571 C87.6171989,8.00000143 87.9823307,8.28571286 88.2650177,8.57142857 C88.5477046,8.85714429 88.7832735,9.10714179 88.9717314,9.32142857 L85.9681979,12.1428571 C85.8504117,11.9047607 85.6796242,11.6309539 85.4558304,11.3214286 C85.2320366,11.0119032 84.9316862,10.7142871 84.5547703,10.4285714 C84.1778544,10.1428557 83.7126058,9.90476286 83.1590106,9.71428571 C82.6054154,9.52380857 81.9399332,9.42857143 81.1625442,9.42857143 C80.1495827,9.42857143 79.4075406,9.61309339 78.9363958,9.98214286 C78.4652509,10.3511923 78.229682,10.7738071 78.229682,11.25 C78.229682,11.8928604 78.5418108,12.3452368 79.1660777,12.6071429 C79.7903447,12.8690489 80.6678389,13.0952371 81.7985866,13.2857143 C82.7173191,13.4523818 83.482918,13.5952375 84.0954064,13.7142857 C84.7078947,13.8333339 85.2320355,13.9523804 85.6678445,14.0714286 C86.1036535,14.1904768 86.4687853,14.3273802 86.7632509,14.4821429 C87.0577164,14.6369055 87.3462883,14.8214275 87.6289753,15.0357143 C88.1707919,15.4642879 88.6065943,16.0119014 88.9363958,16.6785714 C89.2661972,17.3452414 89.4310954,18.05952 89.4310954,18.8214286 C89.4310954,19.5119082 89.2720864,20.2202345 88.9540636,20.9464286 C88.6360408,21.6726227 88.1531246,22.327378 87.5053004,22.9107143 C86.8574761,23.4940505 86.032985,23.9761886 85.0318021,24.3571429 C84.0306193,24.7380971 82.8468855,24.9285714 81.4805654,24.9285714 C79.90223,24.9285714 78.3769214,24.6726216 76.9045936,24.1607143 C75.4322659,23.648807 74.1307477,22.8452436 73,21.75 L76.1448763,19.1071429 Z" id="Path"></path>
            </g>
        </g>
    </g>
</svg>